<?xml version="1.0" standalone="no"?>
<!DOCTYPE svg PUBLIC "-//W3C//DTD SVG 20010904//EN"
 "http://www.w3.org/TR/2001/REC-SVG-20010904/DTD/svg10.dtd">
<svg version="1.0" xmlns="http://www.w3.org/2000/svg"
 width="310.000000pt" height="310.000000pt" viewBox="0 0 310.000000 310.000000"
 preserveAspectRatio="xMidYMid meet">
<metadata>
Created by potrace 1.11, written by Peter Selinger 2001-2013
</metadata>
<g transform="translate(0.000000,310.000000) scale(0.100000,-0.100000)"
fill="#000000" stroke="none">
<path d="M508 2583 l-3 -378 -100 -2 c-116 -3 -138 -7 -159 -29 -14 -14 -16
-108 -16 -880 0 -851 0 -864 20 -884 20 -20 33 -20 1300 -20 1267 0 1280 0
1300 20 20 20 20 33 20 884 l0 865 -26 20 c-23 18 -41 21 -140 21 l-114 0 0
380 0 380 -30 0 -30 0 0 -380 0 -380 -75 0 -75 0 0 381 0 380 -27 -3 -28 -3
-3 -378 -2 -378 -73 3 -72 3 -3 378 -2 377 -65 0 -65 0 0 -380 0 -380 -75 0
-75 0 0 380 0 380 -95 0 -95 0 -2 -377 -3 -378 -75 0 -75 0 -3 378 -2 377
-270 0 -270 0 -2 -377 -3 -378 -72 -3 -73 -3 -2 378 -3 378 -27 3 -28 3 -2
-378 -3 -378 -72 -3 -73 -3 -2 378 -3 378 -62 3 -63 3 -2 -378z m2297 -1288
l0 -830 -1255 0 -1255 0 -3 820 c-1 451 0 826 3 833 3 10 260 12 1257 10
l1253 -3 0 -830z"/>
<path d="M994 2057 c-12 -7 -14 -98 -14 -598 l0 -589 288 2 287 3 0 590 0 590
-273 5 c-151 3 -280 1 -288 -3z"/>
<path d="M1780 2060 l-95 -5 -3 -593 -2 -593 112 3 113 3 3 587 c2 552 1 588
-15 595 -10 4 -61 6 -113 3z"/>
<path d="M2322 2062 c-9 -3 -12 -156 -12 -598 l0 -594 40 0 40 0 0 594 0 594
-28 4 c-16 2 -34 2 -40 0z"/>
<path d="M2527 2055 c-9 -8 -11 -163 -9 -598 l2 -587 40 0 40 0 0 594 0 594
-31 4 c-17 3 -36 0 -42 -7z"/>
<path d="M500 2053 c0 -7 0 -1151 0 -1175 0 -5 34 -8 75 -8 l75 0 0 595 0 595
-75 0 c-41 0 -75 -3 -75 -7z"/>
<path d="M777 2053 c-4 -3 -7 -271 -7 -595 l0 -588 45 0 45 0 0 595 0 595 -38
0 c-21 0 -42 -3 -45 -7z"/>
<path d="M2030 1465 l0 -596 78 3 77 3 0 590 0 590 -77 3 -78 3 0 -596z"/>
</g>
</svg>
